<?xml version="1.0" encoding="UTF-8"?>
<svg id="Layer_2" data-name="Layer 2" xmlns="http://www.w3.org/2000/svg" viewBox="0 0 1000 435">
  <g id="Layer_1-2" data-name="Layer 1">
    <g>
      <rect x=".5" y=".500000008279017" width="999" height="433.999999983441967" rx="216.999782995466489" ry="216.999782995466489" style="fill: #fff; stroke: #000; stroke-miterlimit: 10;"/>
      <path d="m667.143687307097935,132.724356199331851v229.341435177982021h-52v-215.581054687500909l-82.095405611047681,194.728276804774396c-5.327637783715545,12.63702538943835-17.707345664544846,20.852777882726514-31.421503861380188,20.852777882726514h-.000045216796934c-13.692117962847988,0-26.056412482483211-8.189703660234954-31.397906810538188-20.796944938640081l-82.527033031487008-194.784109748860828v215.581054687500909h-51.54736328125v-229.341627182487173c0-24.254023044694804,19.663138724072269-43.915070251444376,43.91716163154706-43.912490276398785l29.52717430595294.003140896385048,92,218.000000000000909,95-218.000000000000909,26.627568259791587-.002948871038825c24.254097871933482-.00268602097276,43.917353615208413,19.658392234893654,43.917353615208413,43.912490255557714Z" style="fill: #dd6605;"/>
      <polygon points="322.038767873504185 88.834773310906712 322.038767873504185 130.434809932001372 321.598765432097935 130.434809932001372 321.598765432097935 135.814814814812962 87.478770314911344 135.814814814812962 87.478770314911344 88.834773310906712 322.038767873504185 88.834773310906712" style="fill: #dd6605;"/>
      <polygon points="321.598765432097935 201.814814814812962 321.598765432097935 248.244807490595122 139.028758107879185 246.244807490595122 139.028758107879185 361.814814814813872 87.478770314911344 361.814814814813872 87.478770314911344 201.804805049187962 87.598765432097935 201.804805049187962 87.598765432097935 201.814814814812962 321.598765432097935 201.814814814812962" style="fill: #dd6605;"/>
      <rect x="87.478770314911344" y="201.804805049187962" width=".119995117186591" height=".010009765625"/>
      <path d="m954.228582952977376,149.426086606014906l-195.746196799565951-3.174262650803939c-3.220076567244178-.052217457847291-6.664387842392898.392417113317606-9.394773902829911,2.100226154980191-4.278577515224242,2.676175897553549-7.988146437690375,8.458037404614515-8.592291966591802,19.332656924832918-1.074036495823748,19.332656924832918-3.222109487473062,42.961459832962646-3.222109487473062,42.961459832962646l22.299771075951867-1-3.633442613534498,46.183569320434799-61.856306698744447,1,7.530853275180561-101.269057230843828c1.072021548043267-14.415711943205679,6.577234270154804-28.237034966218744,16.124135662570552-39.091465160037842.414671496995652-.471464261806432.840041543844563-.942404091731987,1.276368869568614-1.41229505789488,3.490618611427635-3.759127735384027,7.451128189779411-6.779855379889341,11.428419588377437-9.196437495493228,10.212802432795797-6.205247047774719,22.091330237068178-9.112535146518894,34.037401888948807-8.799810757726846l195.118353587262391,5.107810303331462-5.370182479120558,47.257605816258547Z" style="fill: #dd6605;"/>
      <path d="m688.945971509132505,316.124655138959497l195.765812476329302,1.54795683202974c3.220399250300034.025464298174484,6.660897783885957-.44776915626062,9.377001693710554-2.178202429418889,4.256197057982718-2.711628586668667,7.917604124828358-8.524108467772749,8.431385973030046-19.403371758184221.913389952360376-19.340912516283424,2.865088340875445-42.986745507507294,2.865088340875445-42.986745507507294l-23.74693978119285-.496665574930375,7.697266697245141-46.605005241045546,58.854482662047303.560886849518283-6.689282721012205,101.328126402072485c-.952223467360454,14.424120475687232-6.342423113715995,28.290702065776713-15.798819943171111,39.224070258282154-.41074041390857.474892948954221-.832183365278979.949350364222482-1.264591931018003,1.422849981467152-3.459268531505586,3.787996944072802-7.394546204133803,6.841522981594608-11.351624164102759,9.291063756831136-10.1608988042899,6.289877577841253-22.014863876351228,9.295748326272587-33.963121290456911,9.082278840203799l-195.15405422083677-3.486653678024595,4.977396208552818-47.300588731293828Z" style="fill: #dd6605;"/>
      <ellipse cx="821.257369995117188" cy="229.06231689453125" rx="64.831260887512045" ry="50.483392094507579" transform="translate(377.629622385015409 957.160960172195473) rotate(-74.23087567297469)" style="fill: none; stroke: #603813; stroke-dasharray: 0 0 15.151156425476074 15.151156425476074; stroke-linecap: round; stroke-miterlimit: 10; stroke-width: 4px;"/>
      <path d="m792.123108579367909,206.127911397217758s16.110547437361674-23.628802908128819,47.257605816259456-16.110547437360765" style="fill: none; stroke: #603813; stroke-linecap: round; stroke-miterlimit: 10; stroke-width: 4px;"/>
      <path d="m787.318741133853109,230.708077020532073s22.280024298244825-51.893262205719111,65.950411211662868-21.135946648370009" style="fill: none; stroke: #603813; stroke-linecap: round; stroke-miterlimit: 10; stroke-width: 4px;"/>
      <path d="m797.419254562664719,271.866247129957628s-19.675434529879567-39.314316259184125,15.402140386924657-57.785453731346024c0,0,22.189136966917431-13.100954993042251,38.299684404279105,7.305738427615324,8.458037404614515,10.71351404584675,5.370853751930554,19.650840236719887-.713646906015128,24.325315575670174-6.416464528692813,4.929509731169674-15.748757564635525,2.146282116475049-19.048059580924019-5.241930755593785-1.832638164250966-4.103874337091838-6.739365836769139-11.465696895465953-14.607461379431697-7.406094408030185-8.592291966591802,4.433257025313651-6.159870999132181,15.832987090579991-2.656155522838162,23.865257132685656,1.797008634312078,4.119643480316881,4.758434323910478,7.604225744304131,8.520243162831321,10.063798206363572,4.541014858305061,2.969038452913082,11.152865063220816,6.075524135347223,17.76471526813657,4.873369552635268" style="fill: none; stroke: #603813; stroke-linecap: round; stroke-miterlimit: 10; stroke-width: 4px;"/>
      <path d="m816.751911487497637,276.939355684702605s-25.776875899777224-16.887510008808022-13.96247444571236-42.664385908585245c6.165856193221771-13.452777148848327,15.257092963336618-16.081646163187543,22.54082767935688-15.520288705902203,8.835241342065274.680932077792932,16.455670434243075,6.902767940241574,17.995659127876934,15.629370537506475.176209112596553.998518304713798.276900034079517,2.038991160043224.276900034079517,3.113027655865153" style="fill: none; stroke: #603813; stroke-linecap: round; stroke-miterlimit: 10; stroke-width: 4px;"/>
    </g>
  </g>
</svg>